<svg xmlns="http://www.w3.org/2000/svg" viewBox="0 0 573.66 573.67"><defs><style>.cls-1{fill:#fff;}</style></defs><title>Hero</title><g id="Layer_2" data-name="Layer 2"><g id="Design"><path class="cls-1" d="M195.14,113.64s-19.67,8.67-19.67,23c0,0-.67,4.67-14.33,5,0,0-3,4.34-2.67,7.34l-4.67,1.33s-4.33,3-4.33,7c0,0-11.17,10.12-14.54,17.37,0,0,1.81,3.57,1.5,4.82,0,0,2.62.25,1.75,1.81l.81.37-.44,2.38s-2.43,0-1.25,2.19c0,0,3.88,11.68-9.12,20.5a12.75,12.75,0,0,0,2.94,3.93s-3.19,9.94,1.56,15.07c0,0,14.31,9.62,13.37,17.43a13.11,13.11,0,0,0,10.13,9.44s9.81,10.19,13.44,11a43.05,43.05,0,0,1,23.25-4.25l9.12.5s7.56-5,14.81-2.87c0,0,2.38,1.12,8.94-1.38,0,0,.63-.44,1.56,1,0,0,3.38.69,5.07-.94,0,0,2.87,1.88,2.75,3.5v6.25s9.56-.37,13.12-3.12c0,0,14.19,6.69,3.38,28.94,0,0,25.68,28.31,21.31,44.81,0,0,5.12,3.12,3,8.75s-14.63,19.12-4.38,36.62c0,0,13.5,18.63,9.5,35.13l14,25-1.5,5.5s5.25,9.75,18.25,5l3-1.25,2.25-1.5,1.25,1s28.25,1.75,45.75-34.75l13-10.25-1.25-15.75s-3.25-4.75,10.25-12l13.5-9.25s12.75-33.25,4-31c0,0-3.75-3.75-1.75-21,0,0,2.25-4.5-1-7,0,0,10-8,4.5-7.75l.25-2.5s7-.25,12.25-9.5c0,0-1-4.5,11.5-12.75,0,0,25.5-29,24-53,0,0-11.31,5.48-13,5s-7.5,5.75-19.25,3.25c0,0-2-5.5-5.5-7.5,0,0,4-4,1-4,0,0-2,1.25-2-2.75,0,0-5.75-4-8.75-4,0,0-3.25-6.75-7.75-6.75a17.21,17.21,0,0,0-7-13.5s-.25-2.75-5-2.75l-4-15-5-3.5.5-3.5h-4l-17-34.5s-3.25-5.25-8-.25c0,0-6.25,3-17-2.75,0,0-3,6.25-6.5-2.25,0,0-4.25,2.5-11.25-3,0,0,1-3-10,2,0,0-5.75,3.5.75,7.25,0,0,3,6-11,0,0,0-31.75-11-26.25-13.5,0,0-9.5-1.25.5-5.25,0,0,1.75-2.08-.75-2.92s-4-1.33.75-6.33c0,0,2-1.75-3.75-1.75,0,0-1.25-2.75-6.5,0,0,0-36.5-2.75-42.25,7,0,0-13.25,2-19.25-5.75Z"/><path class="cls-1" d="M124.05,177.75s-5.93,7.56-13.43,9.31c0,0-8.07,13.25-3.63,12.25s2.63-2.31,4.81-2.56,1.94,3.43,1.94,3.43,1.5,2.75,5.25.57c0,0,.63-5.57,3.88-6.19s3.93-8.94,2.62-14.81C125.49,179.75,125,177.25,124.05,177.75Z"/><path class="cls-1" d="M132.43,133s-1.69-.94-1.06,3.31c0,0-6.07,21.62-2.57,25.56,0,0,1.44,1.94,3.63-4.06,0,0,3.19.06,3.75,1.44,0,0,.56.12.87-2.44l-.81-.19s2.06-11.5.13-16.56-3.63-4.88-3.63-4.88S132.74,133.08,132.43,133Z"/><path class="cls-1" d="M412.8,378.06l-5.37,10.5,2.69,7.37s-11.07,11.75-7.57,16.63a18.38,18.38,0,0,1,3.63,9.25s4.87,9.5,16.12,0v2.12l1.13-.75,1.87-3.37v-1.63s17.38-27.75,15.38-41c0,0,1.37.75,1.5-.62s-1.5-12.75-5-17.75a9.25,9.25,0,0,1-4.88,3.87s-3.25,7.38-6.75,9v2.38S424.43,377.56,412.8,378.06Z"/><path class="cls-1" d="M403.55,370.06l-.62,2.25,2,4.25h4s4.87-9.5,3.75-10.88S407.8,364.68,403.55,370.06Z"/><path class="cls-1" d="M453.93,346.31s2.37,5.25-4.63.87c0,0,2.13,7.88,6,10.13s2.38,3.12,2.38,3.12,2.37,1,1.5-3.25S453.43,341.06,453.93,346.31Z"/><path class="cls-1" d="M442.8,393.68s-6.12,3.63-6,7.75a46.12,46.12,0,0,1,0,5.25s5.63-3.62,8.63-7.87S444.93,393.81,442.8,393.68Z"/><path class="cls-1" d="M230.18,273l-.29,1.12s1.87,1,1.75,2.5,0,4.88,1.08,5.5,10.37,9.29,10.87,10c0,0,4-.41,4-1.16s.46-7.09-.54-7.46-.54-.21-1-.94-1.29-.31-2-.6-2.29-10.55-6.63-10.17c0,0-.54,4.54-4.33,3.33S232.26,273.1,230.18,273Z"/><path class="cls-1" d="M66.43,111.06s-24.75,9-25.75,39.62c0,0,19.25-10.75,35.87-3.87A49.32,49.32,0,0,1,66.43,111.06Z"/><path class="cls-1" d="M79.68,151.43s-38.54-12.79-57.21,22.21c0,0-19.33,40.67,22.33,60.67C44.8,234.31,50.89,194.23,79.68,151.43Z"/><path class="cls-1" d="M17.21,209.58S-2.45,227.1,8,255.92c0,0,13.91-17.11,31.89-16.88A49.31,49.31,0,0,1,17.21,209.58Z"/><path class="cls-1" d="M44.44,240.72S3.93,243.59,0,283.06c0,0-2.37,45,43.78,47.57C43.8,330.63,34.14,291.26,44.44,240.72Z"/><path class="cls-1" d="M44.84,338.41S8.77,357.07,20.79,394.87c0,0,15.6,42.24,59,26.38C79.81,421.25,55.36,388.9,44.84,338.41Z"/><path class="cls-1" d="M81.56,425.47s-26.1,31.11-.45,61.37c0,0,30.67,33,64.62,1.61C145.73,488.45,110.72,468,81.56,425.47Z"/><path class="cls-1" d="M150.74,492.94s-13,38.47,21.9,57.33c0,0,40.56,19.55,60.78-22C233.42,528.27,193.37,522,150.74,492.94Z"/><path class="cls-1" d="M241.71,529.54s3.16,40.48,42.66,44.11c0,0,45,2.05,47.26-44.11C331.63,529.54,292.32,539.48,241.71,529.54Z"/><path class="cls-1" d="M337.44,528.79s18.48,36.16,56.34,24.33c0,0,42.31-15.39,26.67-58.88C420.45,494.24,388,518.52,337.44,528.79Z"/><path class="cls-1" d="M425.6,491.76s31,26.18,61.36.6c0,0,33.05-30.59,1.77-64.62C488.73,427.74,468.21,462.7,425.6,491.76Z"/><path class="cls-1" d="M494.38,421.26s38.76,12.11,56.8-23.22c0,0,18.61-41-23.4-60.26C527.78,337.78,522.41,378,494.38,421.26Z"/><path class="cls-1" d="M529.36,332.06s40.49-3,44.29-42.48c0,0,2.23-45-43.92-47.43C529.73,242.15,539.5,281.49,529.36,332.06Z"/><path class="cls-1" d="M527.34,235s36.12-18.55,24.22-56.39c0,0-15.48-42.28-58.94-26.55C492.62,152.09,517,184.51,527.34,235Z"/><path class="cls-1" d="M488,147.15s26.71-30.59,1.66-61.35c0,0-30-33.56-64.59-2.87C425.06,82.93,459.67,104,488,147.15Z"/><path class="cls-1" d="M420.6,80.25S433,41.57,397.75,23.3c0,0-40.88-18.88-60.41,23C337.34,46.31,377.49,51.94,420.6,80.25Z"/><path class="cls-1" d="M330.57,43.6S326.92,3.16,287.38,0c0,0-45-1.51-46.71,44.68C240.67,44.69,279.85,34.28,330.57,43.6Z"/><path class="cls-1" d="M235.58,46.23S217.85,9.69,179.75,20.74c0,0-42.62,14.52-27.88,58.32C151.87,79.06,184.83,55.46,235.58,46.23Z"/><path class="cls-1" d="M146.27,84s-31.11-26.1-61.37-.45c0,0-33,30.67-1.61,64.63C83.29,148.21,103.72,113.19,146.27,84Z"/><path class="cls-1" d="M8.53,316.93s-12,23.43,8.08,46.56c0,0,6.8-21,23.66-27.25A49.31,49.31,0,0,1,8.53,316.93Z"/><path class="cls-1" d="M40.15,422.45S39,448.77,66.93,461.39c0,0-2.58-21.89,10.13-34.63A49.34,49.34,0,0,1,40.15,422.45Z"/><path class="cls-1" d="M110.1,505s8.08,25.06,38.65,27.19c0,0-10-19.64-2.56-36A49.27,49.27,0,0,1,110.1,505Z"/><path class="cls-1" d="M208.21,556.67s18.07,19.16,46.59,7.94c0,0-17.5-13.41-17.78-31.4A49.29,49.29,0,0,1,208.21,556.67Z"/><path class="cls-1" d="M318.45,566.46s23.86,11.16,46.24-9.77c0,0-21.21-6-28.08-22.65A49.32,49.32,0,0,1,318.45,566.46Z"/><path class="cls-1" d="M422.68,533.62s26.31,1.17,39-26.73c0,0-21.9,2.55-34.62-10.17A49.3,49.3,0,0,1,422.68,533.62Z"/><path class="cls-1" d="M505.48,461.6s24.71-9.12,25.56-39.75c0,0-19.2,10.85-35.86,4A49.29,49.29,0,0,1,505.48,461.6Z"/><path class="cls-1" d="M558.44,364.39s18.85-18.39,7.16-46.71c0,0-13.12,17.72-31.1,18.3A49.32,49.32,0,0,1,558.44,364.39Z"/><path class="cls-1" d="M566.36,255.38s11-23.91-10-46.2c0,0-5.94,21.24-22.53,28.19A49.29,49.29,0,0,1,566.36,255.38Z"/><path class="cls-1" d="M532.4,149.78s.53-26.33-27.68-38.3c0,0,3.09,21.84-9.31,34.87A49.26,49.26,0,0,1,532.4,149.78Z"/><path class="cls-1" d="M460.94,67.08S452,42.3,421.39,41.21c0,0,10.7,19.28,3.77,35.88A49.3,49.3,0,0,1,460.94,67.08Z"/><path class="cls-1" d="M365.23,16.06S348.21-4,319.14,5.65c0,0,16.76,14.33,16.07,32.31A49.36,49.36,0,0,1,365.23,16.06Z"/><path class="cls-1" d="M255.1,6.19S231.1-4.65,209,16.57c0,0,21.29,5.75,28.38,22.28A49.3,49.3,0,0,1,255.1,6.19Z"/><path class="cls-1" d="M150,40.47s-26.33-.68-38.48,27.45c0,0,21.85-3,34.81,9.53A49.31,49.31,0,0,1,150,40.47Z"/></g></g></svg>